/* XPM */
static char * icon_xpm[] = {
"32 32 931 2",
"  	c None",
". 	c #80808C",
"+ 	c #636470",
"@ 	c #535460",
"# 	c #575864",
"$ 	c #5E5F6C",
"% 	c #646573",
"& 	c #6B6B79",
"* 	c #757685",
"= 	c #808190",
"- 	c #858695",
"; 	c #858696",
"> 	c #7F8090",
", 	c #797A8B",
"' 	c #7B7C8D",
") 	c #7C7D8E",
"! 	c #7E7F91",
"~ 	c #868799",
"{ 	c #9192A4",
"] 	c #9495A7",
"^ 	c #88899B",
"/ 	c #808193",
"( 	c #838495",
"_ 	c #848596",
": 	c #808191",
"< 	c #7E7F8F",
"[ 	c #838494",
"} 	c #888998",
"| 	c #7A7B89",
"1 	c #727381",
"2 	c #757684",
"3 	c #898A96",
"4 	c #70717D",
"5 	c #626370",
"6 	c #884F62",
"7 	c #8B5E70",
"8 	c #8C6D7E",
"9 	c #8F7C8C",
"0 	c #948E9E",
"a 	c #999AAA",
"b 	c #9A9BAB",
"c 	c #9293A4",
"d 	c #898A9B",
"e 	c #8D8EA0",
"f 	c #9697AA",
"g 	c #9C9DB0",
"h 	c #A1A2B5",
"i 	c #A0A2B4",
"j 	c #999AAD",
"k 	c #87889B",
"l 	c #7C7D8F",
"m 	c #767789",
"n 	c #6C6D7F",
"o 	c #636475",
"p 	c #646576",
"q 	c #6B6C7D",
"r 	c #747585",
"s 	c #777887",
"t 	c #707181",
"u 	c #6F707E",
"v 	c #767785",
"w 	c #9394A0",
"x 	c #828390",
"y 	c #737381",
"z 	c #994C60",
"A 	c #CD2B48",
"B 	c #CF3652",
"C 	c #C54E68",
"D 	c #CB4964",
"E 	c #CE415F",
"F 	c #CE3857",
"G 	c #9A9BAD",
"H 	c #9798AA",
"I 	c #9899AB",
"J 	c #989AAC",
"K 	c #9D9EB1",
"L 	c #A5A7BA",
"M 	c #AFB0C4",
"N 	c #B1B2C6",
"O 	c #ACADC1",
"P 	c #9EA0B4",
"Q 	c #8F90A4",
"R 	c #838598",
"S 	c #797A8D",
"T 	c #646578",
"U 	c #59596C",
"V 	c #58596B",
"W 	c #6E576B",
"X 	c #7E596E",
"Y 	c #7A697B",
"Z 	c #737483",
"` 	c #7D7E8D",
" .	c #9596A3",
"..	c #90919E",
"+.	c #7F808E",
"@.	c #757482",
"#.	c #E31234",
"$.	c #D72A4A",
"%.	c #A0A1B1",
"&.	c #A3A4B5",
"*.	c #B56F87",
"=.	c #CD3757",
"-.	c #9899AC",
";.	c #AAABBF",
">.	c #A6A7BB",
",.	c #A3A4B9",
"'.	c #A5A6BB",
").	c #ADAFC4",
"!.	c #B0B2C7",
"~.	c #A9ABC0",
"{.	c #9D9EB4",
"].	c #9192A7",
"^.	c #8E8FA4",
"/.	c #838499",
"(.	c #6E6F84",
"_.	c #66687B",
":.	c #686579",
"<.	c #9C445E",
"[.	c #BE2C4B",
"}.	c #9F556D",
"|.	c #828393",
"1.	c #8C8D9D",
"2.	c #91929E",
"3.	c #9394A2",
"4.	c #8A8896",
"5.	c #936678",
"6.	c #DC1435",
"7.	c #BD4963",
"8.	c #9F9EAF",
"9.	c #9F99AB",
"0.	c #9A8498",
"a.	c #9E7188",
"b.	c #9091A5",
"c.	c #A0A1B6",
"d.	c #ABACC1",
"e.	c #A7A8BE",
"f.	c #9F9FB5",
"g.	c #A38EA8",
"h.	c #A49FB7",
"i.	c #A3A4BB",
"j.	c #9B9DB4",
"k.	c #8F91A8",
"l.	c #86879E",
"m.	c #8F90A7",
"n.	c #8B8CA3",
"o.	c #83849A",
"p.	c #808196",
"q.	c #83778D",
"r.	c #B24462",
"s.	c #DC1338",
"t.	c #A4667E",
"u.	c #8F90A1",
"v.	c #9091A1",
"w.	c #9B9CAC",
"x.	c #9292A0",
"y.	c #9899A6",
"z.	c #968797",
"A.	c #B14A63",
"B.	c #D71839",
"C.	c #AF536C",
"D.	c #9D7A8E",
"E.	c #BB506C",
"F.	c #A0667E",
"G.	c #8D758B",
"H.	c #D4294D",
"I.	c #DD163E",
"J.	c #CA3E61",
"K.	c #9E9FB6",
"L.	c #9E8EA7",
"M.	c #BA5577",
"N.	c #AA829F",
"O.	c #9899B3",
"P.	c #8D8CA5",
"Q.	c #817B96",
"R.	c #985B7A",
"S.	c #A36F8D",
"T.	c #8B8DA4",
"U.	c #8E8FA6",
"V.	c #8C8EA4",
"W.	c #8E859C",
"X.	c #B34D6B",
"Y.	c #D61E42",
"Z.	c #A18298",
"`.	c #999AAC",
" +	c #9B9CAD",
".+	c #A5A6B6",
"++	c #9596A4",
"@+	c #9FA0AE",
"#+	c #A18394",
"$+	c #C03753",
"%+	c #D11B3C",
"&+	c #B53C59",
"*+	c #BB3453",
"=+	c #BA3655",
"-+	c #747589",
";+	c #7E7F94",
">+	c #987992",
",+	c #CD3A5E",
"'+	c #CB385E",
")+	c #9799B2",
"!+	c #A57998",
"~+	c #D12550",
"{+	c #B75D81",
"]+	c #9286A4",
"^+	c #985D7F",
"/+	c #C32D57",
"(+	c #A4496D",
"_+	c #C0486D",
":+	c #D0234D",
"<+	c #97839F",
"[+	c #8D8EA6",
"}+	c #917A94",
"|+	c #C23658",
"1+	c #C82F53",
"2+	c #9495A9",
"3+	c #9B9CAF",
"4+	c #A1A2B4",
"5+	c #A6A7B8",
"6+	c #9293A1",
"7+	c #9D9EAD",
"8+	c #AC768B",
"9+	c #D02746",
"0+	c #BA3754",
"a+	c #737486",
"b+	c #8E556D",
"c+	c #AB3A59",
"d+	c #707287",
"e+	c #86889E",
"f+	c #B0829D",
"g+	c #D7385E",
"h+	c #C94A6F",
"i+	c #9B9DB8",
"j+	c #AA6F91",
"k+	c #C33B64",
"l+	c #A66E91",
"m+	c #9F587E",
"n+	c #BE2E5A",
"o+	c #914B70",
"p+	c #737593",
"q+	c #957293",
"r+	c #C23B64",
"s+	c #BA486E",
"t+	c #8688A2",
"u+	c #916682",
"v+	c #C32C50",
"w+	c #AD4162",
"x+	c #828398",
"y+	c #8D8EA2",
"z+	c #9394A7",
"A+	c #9697A9",
"B+	c #828391",
"C+	c #9293A2",
"D+	c #B6637A",
"E+	c #D82546",
"F+	c #B34D68",
"G+	c #7E8092",
"H+	c #827286",
"I+	c #866E85",
"J+	c #7F8197",
"K+	c #9395AC",
"L+	c #BD97B4",
"M+	c #DB567D",
"N+	c #C97195",
"O+	c #A4A4C2",
"P+	c #AF648A",
"Q+	c #A65E85",
"R+	c #956A90",
"S+	c #B33967",
"T+	c #AE3563",
"U+	c #6B557A",
"V+	c #707294",
"W+	c #916489",
"X+	c #C63360",
"Y+	c #BC436C",
"Z+	c #81839F",
"`+	c #975374",
" @	c #C7234B",
".@	c #934766",
"+@	c #6C6E84",
"@@	c #76778C",
"#@	c #7B7C90",
"$@	c #7F8092",
"%@	c #7B7C8A",
"&@	c #8D8E9D",
"*@	c #E21336",
"=@	c #DC2042",
"-@	c #8E8FA1",
";@	c #8D8EA1",
">@	c #DC153D",
",@	c #9E7D97",
"'@	c #A1A2BB",
")@	c #B4B5CF",
"!@	c #E62957",
"~@	c #D480A5",
"{@	c #D2416F",
"]@	c #AE6891",
"^@	c #88769D",
"/@	c #905A86",
"(@	c #BD3165",
"_@	c #953D6D",
":@	c #54577E",
"<@	c #6D7097",
"[@	c #895B85",
"}@	c #C03968",
"|@	c #B04E78",
"1@	c #8B7595",
"2@	c #A9446A",
"3@	c #BC3057",
"4@	c #794F6B",
"5@	c #5E6077",
"6@	c #6A6B80",
"7@	c #737488",
"8@	c #737487",
"9@	c #838493",
"0@	c #DF1537",
"a@	c #DC1A3C",
"b@	c #CB3756",
"c@	c #9B768C",
"d@	c #948297",
"e@	c #9495AA",
"f@	c #E01B43",
"g@	c #9B9DB5",
"h@	c #9FA1BA",
"i@	c #B0A4C2",
"j@	c #D81F4E",
"k@	c #E63163",
"l@	c #C876A2",
"m@	c #9597BE",
"n@	c #7C7FA9",
"o@	c #8F5486",
"p@	c #CC2C69",
"q@	c #585584",
"r@	c #535684",
"s@	c #666995",
"t@	c #D02962",
"u@	c #D3275E",
"v@	c #787A9E",
"w@	c #7C7698",
"x@	c #DC2352",
"y@	c #8F4B6E",
"z@	c #555771",
"A@	c #60617A",
"B@	c #717389",
"C@	c #77798E",
"D@	c #6F7084",
"E@	c #9697A7",
"F@	c #B2677F",
"G@	c #B15B75",
"H@	c #B1506C",
"I@	c #B74C6A",
"J@	c #C24566",
"K@	c #C83E62",
"L@	c #9192AB",
"M@	c #9395B0",
"N@	c #9F8FAF",
"O@	c #D31D4E",
"P@	c #A987AE",
"Q@	c #A6A9D1",
"R@	c #9699C5",
"S@	c #7D80B0",
"T@	c #696DA1",
"U@	c #C73479",
"V@	c #984383",
"W@	c #5C6097",
"X@	c #A24481",
"Y@	c #CE3170",
"Z@	c #676991",
"`@	c #B24674",
" #	c #DB2556",
".#	c #6F5777",
"+#	c #635C78",
"@#	c #686982",
"##	c #76778F",
"$#	c #7E7F95",
"%#	c #7B7D91",
"&#	c #8B8C9B",
"*#	c #9495A5",
"=#	c #9597A9",
"-#	c #898B9F",
";#	c #888AA0",
">#	c #83859C",
",#	c #7C7E98",
"'#	c #7D7F9B",
")#	c #8688A8",
"!#	c #8D8FB2",
"~#	c #8285AC",
"{#	c #7E81AC",
"]#	c #9396C8",
"^#	c #8387BF",
"/#	c #696DAC",
"(#	c #6860A5",
"_#	c #994C9A",
":#	c #BA5DAA",
"<#	c #A14E94",
"[#	c #6568A0",
"}#	c #5E6193",
"|#	c #656893",
"1#	c #AB3F70",
"2#	c #E12F62",
"3#	c #944D73",
"4#	c #734B6B",
"5#	c #5D5E78",
"6#	c #8B8DA3",
"7#	c #9394A9",
"8#	c #7A7B8B",
"9#	c #999AAB",
"0#	c #A1A3B5",
"a#	c #9D9FB2",
"b#	c #9395AA",
"c#	c #8A8BA2",
"d#	c #7E8098",
"e#	c #747691",
"f#	c #737592",
"g#	c #7A7C9D",
"h#	c #8284A9",
"i#	c #8386B0",
"j#	c #797CAC",
"k#	c #6F73AB",
"l#	c #9498DB",
"m#	c #7A7FCD",
"n#	c #676CC5",
"o#	c #686ECC",
"p#	c #7A80D9",
"q#	c #7176C4",
"r#	c #6B70B2",
"s#	c #7074AC",
"t#	c #6D70A0",
"u#	c #71739D",
"v#	c #A6416F",
"w#	c #9B3661",
"x#	c #754063",
"y#	c #565873",
"z#	c #71728B",
"A#	c #8C8EA5",
"B#	c #9C9DB2",
"C#	c #828394",
"D#	c #A9ABBD",
"E#	c #A5A6BA",
"F#	c #989AAF",
"G#	c #8C8DA4",
"H#	c #80819A",
"I#	c #737591",
"J#	c #727492",
"K#	c #777A9C",
"L#	c #7F81A8",
"M#	c #8083B0",
"N#	c #7F83B7",
"O#	c #8388C6",
"P#	c #7479C7",
"Q#	c #B2B8FF",
"R#	c #8189FF",
"S#	c #848DFF",
"T#	c #878FFF",
"U#	c #8086E9",
"V#	c #878CDA",
"W#	c #9498D6",
"X#	c #7174A8",
"Y#	c #6B6E9A",
"Z#	c #686A91",
"`#	c #616486",
" $	c #595B7A",
".$	c #5C5E7A",
"+$	c #71738C",
"@$	c #999AAF",
"#$	c #767786",
"$$	c #868797",
"%$	c #9B9CAE",
"&$	c #A6A7BA",
"*$	c #9FA0B4",
"=$	c #9294A9",
"-$	c #898BA2",
";$	c #84859F",
">$	c #7C7E9A",
",$	c #797B9A",
"'$	c #7D80A2",
")$	c #8184AB",
"!$	c #7F82B1",
"~$	c #797DB4",
"{$	c #7D81C5",
"]$	c #8E93EC",
"^$	c #A9B1FF",
"/$	c #FFFFFF",
"($	c #F7FFFF",
"_$	c #B7C3FF",
":$	c #C9D1FF",
"<$	c #8E94ED",
"[$	c #8E93D7",
"}$	c #8F93CA",
"|$	c #8D90BE",
"1$	c #878AB1",
"2$	c #7D80A3",
"3$	c #6F7190",
"4$	c #656783",
"5$	c #6D6F88",
"6$	c #7F8198",
"7$	c #8B8DA2",
"8$	c #8B8C9D",
"9$	c #9B9DAF",
"0$	c #9394A8",
"a$	c #8A8BA1",
"b$	c #8788A0",
"c$	c #8284A0",
"d$	c #8082A1",
"e$	c #8587AA",
"f$	c #898CB4",
"g$	c #898CBB",
"h$	c #8388CE",
"i$	c #8B91EF",
"j$	c #969FFF",
"k$	c #A8B1FF",
"l$	c #A2A8FF",
"m$	c #9B9FE5",
"n$	c #9094CC",
"o$	c #8A8DBC",
"p$	c #8B8EB6",
"q$	c #888AAD",
"r$	c #7C7E9D",
"s$	c #70718D",
"t$	c #7B7C93",
"u$	c #84869B",
"v$	c #8F90A2",
"w$	c #8E8FA2",
"x$	c #87899D",
"y$	c #818299",
"z$	c #7C7D97",
"A$	c #757793",
"B$	c #737594",
"C$	c #77799C",
"D$	c #7B7DA5",
"E$	c #797CAA",
"F$	c #7476AD",
"G$	c #7A77BC",
"H$	c #A6A1FB",
"I$	c #8588FF",
"J$	c #AFBBFF",
"K$	c #B2BEFF",
"L$	c #BAC2FF",
"M$	c #AAB0FF",
"N$	c #8F94D8",
"O$	c #8589C0",
"P$	c #8083B1",
"Q$	c #8385AD",
"R$	c #8689AC",
"S$	c #757692",
"T$	c #7B7D94",
"U$	c #85869C",
"V$	c #838497",
"W$	c #828397",
"X$	c #83859A",
"Y$	c #807E95",
"Z$	c #806984",
"`$	c #A03F63",
" %	c #C81B4A",
".%	c #CE1B4E",
"+%	c #D1255B",
"@%	c #CA4D85",
"#%	c #937BB2",
"$%	c #917ABB",
"%%	c #A572C5",
"&%	c #A176DD",
"*%	c #B3ADFF",
"=%	c #868EFF",
"-%	c #979DFF",
";%	c #969BE8",
">%	c #AEB2F0",
",%	c #A1A4D8",
"'%	c #9193C0",
")%	c #8D90B6",
"!%	c #8E91B3",
"~%	c #888AA9",
"{%	c #7A7C97",
"]%	c #72748D",
"^%	c #787A91",
"/%	c #797A8A",
"(%	c #808294",
"_%	c #848699",
":%	c #8E899F",
"<%	c #A06682",
"[%	c #C42A51",
"}%	c #C92B54",
"|%	c #A25E82",
"1%	c #897B9D",
"2%	c #9B6791",
"3%	c #C0376E",
"4%	c #AA72A8",
"5%	c #A286C1",
"6%	c #B45EA8",
"7%	c #C26FC5",
"8%	c #8B7CD7",
"9%	c #B1B7FF",
"0%	c #A3A8F6",
"a%	c #A7ABED",
"b%	c #979BD3",
"c%	c #9EA1D1",
"d%	c #A2A5CE",
"e%	c #A5A7CC",
"f%	c #A5A7C8",
"g%	c #989AB8",
"h%	c #82849F",
"i%	c #71738A",
"j%	c #7C7D92",
"k%	c #888999",
"l%	c #878899",
"m%	c #858698",
"n%	c #8E8CA1",
"o%	c #AF718B",
"p%	c #D2395D",
"q%	c #C8395E",
"r%	c #976786",
"s%	c #7E7F9C",
"t%	c #8688A7",
"u%	c #AF648E",
"v%	c #C44578",
"w%	c #AE83B2",
"x%	c #AB8DC2",
"y%	c #C260A1",
"z%	c #C672B9",
"A%	c #A499DF",
"B%	c #A8ACF2",
"C%	c #ACB0F4",
"D%	c #9DA1E0",
"E%	c #ABAEE6",
"F%	c #ABAFE0",
"G%	c #9FA2CE",
"H%	c #A0A2C9",
"I%	c #ABAED0",
"J%	c #B1B3D3",
"K%	c #A5A7C3",
"L%	c #9092AC",
"M%	c #7D7E96",
"N%	c #73758B",
"O%	c #9192A3",
"P%	c #9294A5",
"Q%	c #9698AA",
"R%	c #DD143B",
"S%	c #DA133B",
"T%	c #898AA1",
"U%	c #7F819A",
"V%	c #8385A0",
"W%	c #8D8EAC",
"X%	c #999BBC",
"Y%	c #A3A5C9",
"Z%	c #A5A7CF",
"`%	c #BF5C91",
" &	c #D63978",
".&	c #9999CD",
"+&	c #A597D0",
"@&	c #B66FAD",
"#&	c #9599D0",
"$&	c #989BCF",
"%&	c #9B9CCC",
"&&	c #AA9DCB",
"*&	c #ADB0D7",
"=&	c #AA90B7",
"-&	c #AA93B6",
";&	c #ABA0BF",
">&	c #A79FBB",
",&	c #9B98B2",
"'&	c #7B7D92",
")&	c #75778B",
"!&	c #9091A3",
"~&	c #AE6B84",
"{&	c #DA1036",
"]&	c #C73759",
"^&	c #8A8CA2",
"/&	c #7C7E96",
"(&	c #888AA6",
"_&	c #9597B5",
":&	c #A29ABC",
"<&	c #9D9FC3",
"[&	c #D03A6F",
"}&	c #D53971",
"|&	c #9A6193",
"1&	c #D0447F",
"2&	c #D53573",
"3&	c #C04881",
"4&	c #8C8EBB",
"5&	c #8D8AB4",
"6&	c #9FA2C9",
"7&	c #D02054",
"8&	c #BE5C86",
"9&	c #AB6D91",
"0&	c #A36789",
"a&	c #C13C62",
"b&	c #9597AF",
"c&	c #9192A9",
"d&	c #85869B",
"e&	c #78798D",
"f&	c #848593",
"g&	c #7D7E8E",
"h&	c #858697",
"i&	c #BC4662",
"j&	c #DB1136",
"k&	c #B4617D",
"l&	c #88899F",
"m&	c #77788F",
"n&	c #75768F",
"o&	c #81829D",
"p&	c #8F91AD",
"q&	c #9698B7",
"r&	c #8E90B1",
"s&	c #DC2A5D",
"t&	c #CE3063",
"u&	c #91709A",
"v&	c #9194BC",
"w&	c #D72D65",
"x&	c #CE346A",
"y&	c #8484AB",
"z&	c #8689AE",
"A&	c #C62E5E",
"B&	c #D51F50",
"C&	c #A96489",
"D&	c #817E9B",
"E&	c #D51642",
"F&	c #D3113B",
"G&	c #9193A8",
"H&	c #8C8DA2",
"I&	c #818295",
"J&	c #7D7E8C",
"K&	c #727382",
"L&	c #6F7080",
"M&	c #B64561",
"N&	c #DD1136",
"O&	c #B3617C",
"P&	c #8E90A4",
"Q&	c #7E8096",
"R&	c #7C7A92",
"S&	c #8688A1",
"T&	c #9395AF",
"U&	c #9597B3",
"V&	c #9F6F92",
"W&	c #DD2556",
"X&	c #99537A",
"Y&	c #8184A6",
"Z&	c #8E90B3",
"`&	c #D9285B",
" *	c #A55D86",
".*	c #8183A5",
"+*	c #8F83A5",
"@*	c #D21A4B",
"#*	c #A96287",
"$*	c #80829E",
"%*	c #666882",
"&*	c #D91742",
"**	c #C2254B",
"=*	c #7C7D93",
"-*	c #797A87",
";*	c #6E6F7D",
">*	c #666776",
",*	c #676878",
"'*	c #92566D",
")*	c #DC1034",
"!*	c #CB3555",
"~*	c #9E9FB3",
"{*	c #8E8FA5",
"]*	c #AC728F",
"^*	c #D42B53",
"/*	c #A6A7C1",
"(*	c #BA5D81",
"_*	c #DC214E",
":*	c #89587B",
"<*	c #7D7F9E",
"[*	c #9D6B8F",
"}*	c #DB2353",
"|*	c #96668A",
"1*	c #BE4B73",
"2*	c #D61B48",
"3*	c #8889A5",
"4*	c #7D7F99",
"5*	c #63647D",
"6*	c #D8143D",
"7*	c #A73354",
"8*	c #7D7E90",
"9*	c #6C6D7B",
"0*	c #676877",
"a*	c #5E5E6D",
"b*	c #5C5D6C",
"c*	c #6B697A",
"d*	c #CA2949",
"e*	c #DA1337",
"f*	c #C06B86",
"g*	c #A2A3B7",
"h*	c #9A9CB1",
"i*	c #D13156",
"j*	c #C37190",
"k*	c #B4B6CE",
"l*	c #D13F66",
"m*	c #D71A45",
"n*	c #7B7D98",
"o*	c #797B97",
"p*	c #B14B70",
"q*	c #DC1F4D",
"r*	c #777995",
"s*	c #C53F67",
"t*	c #DB1B47",
"u*	c #8A8CA5",
"v*	c #7D7E97",
"w*	c #89526E",
"x*	c #D9133B",
"y*	c #82415B",
"z*	c #626377",
"A*	c #6B6C7F",
"B*	c #6F7082",
"C*	c #727384",
"D*	c #555663",
"E*	c #595A68",
"F*	c #5A5B69",
"G*	c #606170",
"H*	c #737282",
"I*	c #9D8295",
"J*	c #C95671",
"K*	c #DC1035",
"L*	c #DC1137",
"M*	c #DC1339",
"N*	c #D13053",
"O*	c #B298B0",
"P*	c #B7AAC2",
"Q*	c #D53C60",
"R*	c #C43F63",
"S*	c #8C8EA6",
"T*	c #837E98",
"U*	c #BB3E63",
"V*	c #DA1F49",
"W*	c #A25171",
"X*	c #836D88",
"Y*	c #B7486B",
"Z*	c #DE1B44",
"`*	c #BF3D60",
" =	c #916781",
".=	c #A93B5B",
"+=	c #DA143B",
"@=	c #794E65",
"#=	c #666175",
"$=	c #66687A",
"%=	c #6F7081",
"&=	c #41424F",
"*=	c #4D4E5B",
"==	c #5C5C6B",
"-=	c #6D6E7C",
";=	c #848594",
">=	c #BEBFD0",
",=	c #BEC0D1",
"'=	c #AEAFC1",
")=	c #9697AB",
"!=	c #9D9EB3",
"~=	c #B9728F",
"{=	c #AE7E99",
"]=	c #8F89A1",
"^=	c #A05D7A",
"/=	c #BA3D60",
"(=	c #A95473",
"_=	c #8D7991",
":=	c #908099",
"<=	c #CD365A",
"[=	c #D22348",
"}=	c #9E5671",
"|=	c #B33050",
"1=	c #C92043",
"2=	c #8B526A",
"3=	c #845C71",
"4=	c #6E6F81",
"5=	c #444451",
"6=	c #52525F",
"7=	c #666674",
"8=	c #9798A7",
"9=	c #B4B5C4",
"0=	c #C5C6D6",
"a=	c #C2C3D3",
"b=	c #B1B2C3",
"c=	c #9D9EB0",
"d=	c #8F91A3",
"e=	c #8B8C9F",
"f=	c #989AAE",
"g=	c #9D9FB4",
"h=	c #828399",
"i=	c #8A8CA1",
"j=	c #9092A7",
"k=	c #9697AC",
"l=	c #9A9CB0",
"m=	c #9193A7",
"n=	c #8B758A",
"o=	c #855E75",
"p=	c #A0435F",
"q=	c #9B4C65",
"r=	c #856579",
"s=	c #787989",
"t=	c #747582",
"u=	c #8A8B99",
"v=	c #A3A3B2",
"w=	c #B6B7C6",
"x=	c #BDBECD",
"y=	c #A9AABA",
"z=	c #9D9EAF",
"A=	c #77798B",
"B=	c #7B7C8F",
"C=	c #8A8B9F",
"D=	c #808195",
"E=	c #86889C",
"F=	c #9293A7",
"G=	c #9EA0B3",
"H=	c #9798AB",
"I=	c #8B8C9E",
"J=	c #737485",
"K=	c #6E7080",
"L=	c #6C6D7D",
"M=	c #6E6F7E",
"N=	c #747584",
"O=	c #80818F",
"P=	c #767783",
"Q=	c #7E7F8C",
"R=	c #8C8D9A",
"S=	c #9E9FAD",
"T=	c #AAABB9",
"U=	c #A8A9B7",
"V=	c #9E9FAE",
"W=	c #9798A8",
"X=	c #8D8E9F",
"Y=	c #7F8091",
"Z=	c #717284",
"`=	c #727385",
" -	c #838496",
".-	c #77788B",
"+-	c #707183",
"@-	c #7A7B8E",
"#-	c #9596A8",
"$-	c #8E8FA0",
"%-	c #757687",
"&-	c #686979",
"*-	c #616272",
"=-	c #656675",
"--	c #797A88",
". + @ # $ % & * = - ; > , , ' ) ! ~ { ] ^ / ( _ : < [ } - | 1 2 ",
"3 4 5 6 7 8 9 0 a b c d ( ~ e f g h i j k l m n o p q r s t u v ",
"w x y z A B C D E F G H I J K L M N O P Q R S T U V W X Y t Z ` ",
" ...+.@.#.$.%.&.*.=.-.h ;.>.,.'.).!.~.{.].^./.(._.:.<.[.}.> |.1.",
"2.3.4.5.6.7.8.9.0.a.b.c.d.e.f.g.h.i.j.k.l.m.n.o.p.q.r.s.t.u.v.w.",
"x.y.z.A.B.C.D.E.F.G.H.I.J.K.L.M.N.O.P.Q.R.S.T.U.V.W.X.Y.Z.`. +.+",
"++@+#+$+%+&+*+=+-+;+>+,+'+)+!+~+{+]+^+/+(+_+:+<+[+}+|+1+2+3+4+5+",
"6+7+8+9+0+a+b+c+d+e+f+g+h+i+j+k+l+m+n+o+p+q+r+s+t+u+v+w+x+y+z+A+",
"B+C+D+E+F+G+H+I+J+K+L+M+N+O+P+Q+R+S+T+U+V+W+X+Y+Z+`+ @.@+@@@#@$@",
"%@&@*@=@-@;@Q >@,@'@)@!@~@{@]@^@/@(@_@:@<@[@}@|@1@2@3@4@5@6@7@8@",
"9@0@a@b@c@d@e@f@g@h@i@j@k@l@m@n@o@p@q@r@s@t@u@v@w@x@y@z@A@B@C@D@",
"&@E@F@G@H@I@J@K@L@M@N@O@P@Q@R@S@T@U@V@W@X@Y@s@Z@`@ #.#+#@###$#%#",
"&#*#I =#y+-#;#>#,#'#)#!#~#{#]#^#/#(#_#:#<#[#}#|#1#2#3#4#5###6#7#",
"8#d 9#0#a#b#c#d#e#f#g#h#i#j#k#l#m#n#o#p#q#r#s#t#u#v#w#x#y#z#A#B#",
"t C# +D#E#F#G#H#I#J#K#L#M#N#O#P#Q#R#S#T#U#V#W#X#Y#Z#`# $.$+$c#@$",
"#$$$%$&$*$=$-$;$>$,$'$)$!$~${$]$^$/$($_$:$<$[$}$|$1$2$3$4$5$6$7$",
"= 8$I 9$0$a$b$t+c$d$e$f$g$^#h$i$j$/$/$/$k$l$m$n$o$p$q$r$s$+$t$u$",
"= d v$w$x$/.y$z$A$B$C$D$E$F$G$H$I$J$/$K$L$M$N$O$P$Q$R$d$S$+$T$U$",
"` ; ~ V$W$X$Y$Z$`$ %.%+%@%#%$%%%&%*%k$=%-%;%>%,%'%)%!%~%{%]%^%u$",
"/%[ ( (%_%:%<%[%}%|%1%2%3%4%5%6%7%8%M$9%0%a%b%c%d%e%f%g%h%]%i%j%",
"< k%l%m%n%o%p%q%r%s%t%u%v%w%x%y%z%A%B%C%D%E%F%G%H%I%J%K%L%M%N%@@",
"} v.O%P%Q%R%S%T%U%V%W%X%Y%Z%`% &.&+&@&#&$&%&&&*&=&-&;&>&,&n.'&)&",
"&#&#8$!&~&{&]&^&/&,#(&_&:&<&[&}&|&1&2&3&4&5&6&7&8&9&0&a&b&c&d&e&",
"f&` g&h&i&j&k&l&m&n&o&p&q&r&s&t&u&v&w&x&y&z&A&B&C&D&E&F&n.G&H&I&",
"J&K&L&, M&N&O&P&Q&R&S&T&U&V&W&X&Y&Z&`& *.*+*@*#*$*%*&***=*-#;@k ",
"-*;*>*,*'*)*!*~*=${*]*^*/*(*_*:*<*[*}*|*<*1*2*3*4*5*6*7*(.e&! 8*",
"9*0*a*b*c*d*e*f*g*h*i*j*k*l*m*n*o*p*q*r*r*s*t*u*v*w*x*y*z*A*B*C*",
"D*E*F*G*H*I*J*K*L*M*N*O*P*Q*R*S*T*U*V*W*X*Y*Z*`* =.=+=@=#=$=q %=",
"&=*===-=;=.+>=,='=9$)=!='.~={=j.]=^=/=(=_=:=<=[=}=|=1=2=3=4=C*/%",
"5=6=7=J&8=9=0=a=b=c=d=e=;@b.f=g=G&d&h=i=j=k=l=m=n=o=p=q=r=r s=[ ",
"# + t=u=v=w=x=w=y=z=e / A=B=C=)=P&D=#@E=F=j G=H=I=8*J=K=L=M=N=O=",
"4 P=Q=R=S=T=U=V=W=E@X=Y=Z=`= --@^ .-+-@-e=#-j H $-h&%-&-*-=-;*--"};
