/* XPM */
static char * hand_xpm[] = {
"32 32 3 1",
" 	c None",
".	c #000001",
"+	c #FFFFFE",
"         .                      ",
"        .+.                     ",
"        .+.                     ",
"        .+.                     ",
"        .+.                     ",
"        .+.                     ",
"        .+.                     ",
"  .......+.                     ",
" ..+.+.+.+. ...                 ",
".+.+.+.+.+..+++.                ",
".+.+++++.+++++.                 ",
".++++++++++++.                  ",
".+++++++++++.                   ",
".+++++++++++.                   ",
".++++++++++.                    ",
".++++++++++.                    ",
" .+++++++++.                    ",
"  .+++++++.                     ",
"   .......                      ",
"                                ",
"                                ",
"                                ",
"                                ",
"                                ",
"                                ",
"                                ",
"                                ",
"                                ",
"                                ",
"                                ",
"                                ",
"                                ",
"9,0"
};

